<mxfile host="app.diagrams.net" agent="Mozilla/5.0 (Macintosh; Intel Mac OS X 10_15_7) AppleWebKit/537.36 (KHTML, like Gecko) Chrome/131.0.0.0 Safari/537.36" version="26.0.5">
  <diagram id="C5RBs43oDa-KdzZeNtuy" name="Page-1">
    <mxGraphModel dx="665" dy="732" grid="1" gridSize="10" guides="1" tooltips="1" connect="1" arrows="1" fold="1" page="1" pageScale="1" pageWidth="827" pageHeight="1169" math="0" shadow="0">
      <root>
        <mxCell id="WIyWlLk6GJQsqaUBKTNV-0" />
        <mxCell id="WIyWlLk6GJQsqaUBKTNV-1" parent="WIyWlLk6GJQsqaUBKTNV-0" />
        <mxCell id="uiQVbK0ZHy98Gceo0cIi-5" value="" style="edgeStyle=orthogonalEdgeStyle;rounded=0;orthogonalLoop=1;jettySize=auto;html=1;" edge="1" parent="WIyWlLk6GJQsqaUBKTNV-1" source="uiQVbK0ZHy98Gceo0cIi-1" target="uiQVbK0ZHy98Gceo0cIi-3">
          <mxGeometry relative="1" as="geometry" />
        </mxCell>
        <mxCell id="uiQVbK0ZHy98Gceo0cIi-1" value="Start AddBooking" style="ellipse;whiteSpace=wrap;html=1;" vertex="1" parent="WIyWlLk6GJQsqaUBKTNV-1">
          <mxGeometry x="340" y="10" width="120" height="80" as="geometry" />
        </mxCell>
        <mxCell id="uiQVbK0ZHy98Gceo0cIi-8" value="" style="edgeStyle=orthogonalEdgeStyle;rounded=0;orthogonalLoop=1;jettySize=auto;html=1;curved=1;" edge="1" parent="WIyWlLk6GJQsqaUBKTNV-1" source="uiQVbK0ZHy98Gceo0cIi-3" target="uiQVbK0ZHy98Gceo0cIi-6">
          <mxGeometry relative="1" as="geometry">
            <Array as="points">
              <mxPoint x="390" y="220" />
              <mxPoint x="390" y="220" />
            </Array>
          </mxGeometry>
        </mxCell>
        <mxCell id="uiQVbK0ZHy98Gceo0cIi-3" value="Fyll i kundnamn" style="shape=parallelogram;perimeter=parallelogramPerimeter;whiteSpace=wrap;html=1;fixedSize=1;" vertex="1" parent="WIyWlLk6GJQsqaUBKTNV-1">
          <mxGeometry x="305" y="130" width="190" height="60" as="geometry" />
        </mxCell>
        <mxCell id="uiQVbK0ZHy98Gceo0cIi-9" value="Nej" style="edgeStyle=orthogonalEdgeStyle;rounded=0;orthogonalLoop=1;jettySize=auto;html=1;exitX=0.62;exitY=0.132;exitDx=0;exitDy=0;exitPerimeter=0;curved=1;" edge="1" parent="WIyWlLk6GJQsqaUBKTNV-1" source="uiQVbK0ZHy98Gceo0cIi-6">
          <mxGeometry relative="1" as="geometry">
            <mxPoint x="410" y="260" as="sourcePoint" />
            <mxPoint x="410" y="190" as="targetPoint" />
          </mxGeometry>
        </mxCell>
        <mxCell id="uiQVbK0ZHy98Gceo0cIi-11" value="Ja" style="edgeStyle=orthogonalEdgeStyle;rounded=0;orthogonalLoop=1;jettySize=auto;html=1;" edge="1" parent="WIyWlLk6GJQsqaUBKTNV-1" source="uiQVbK0ZHy98Gceo0cIi-6" target="uiQVbK0ZHy98Gceo0cIi-10">
          <mxGeometry relative="1" as="geometry" />
        </mxCell>
        <mxCell id="uiQVbK0ZHy98Gceo0cIi-6" value="&lt;font style=&quot;font-size: 10px;&quot;&gt;Är namnet&amp;nbsp;&lt;/font&gt;&lt;div&gt;&lt;font style=&quot;font-size: 10px;&quot;&gt;giltigt?&lt;/font&gt;&lt;/div&gt;" style="rhombus;whiteSpace=wrap;html=1;" vertex="1" parent="WIyWlLk6GJQsqaUBKTNV-1">
          <mxGeometry x="360" y="260" width="80" height="90" as="geometry" />
        </mxCell>
        <mxCell id="uiQVbK0ZHy98Gceo0cIi-13" value="" style="edgeStyle=orthogonalEdgeStyle;rounded=0;orthogonalLoop=1;jettySize=auto;html=1;" edge="1" parent="WIyWlLk6GJQsqaUBKTNV-1" source="uiQVbK0ZHy98Gceo0cIi-10" target="uiQVbK0ZHy98Gceo0cIi-12">
          <mxGeometry relative="1" as="geometry">
            <Array as="points">
              <mxPoint x="390" y="460" />
              <mxPoint x="390" y="460" />
            </Array>
          </mxGeometry>
        </mxCell>
        <mxCell id="uiQVbK0ZHy98Gceo0cIi-10" value="Fyll i registreringnummer" style="shape=parallelogram;perimeter=parallelogramPerimeter;whiteSpace=wrap;html=1;fixedSize=1;" vertex="1" parent="WIyWlLk6GJQsqaUBKTNV-1">
          <mxGeometry x="310" y="390" width="180" height="40" as="geometry" />
        </mxCell>
        <mxCell id="uiQVbK0ZHy98Gceo0cIi-15" value="Nej" style="edgeStyle=orthogonalEdgeStyle;rounded=0;orthogonalLoop=1;jettySize=auto;html=1;" edge="1" parent="WIyWlLk6GJQsqaUBKTNV-1" source="uiQVbK0ZHy98Gceo0cIi-12" target="uiQVbK0ZHy98Gceo0cIi-10">
          <mxGeometry relative="1" as="geometry">
            <Array as="points">
              <mxPoint x="410" y="460" />
              <mxPoint x="410" y="460" />
            </Array>
          </mxGeometry>
        </mxCell>
        <mxCell id="uiQVbK0ZHy98Gceo0cIi-17" value="Ja" style="edgeStyle=orthogonalEdgeStyle;rounded=0;orthogonalLoop=1;jettySize=auto;html=1;" edge="1" parent="WIyWlLk6GJQsqaUBKTNV-1" source="uiQVbK0ZHy98Gceo0cIi-12" target="uiQVbK0ZHy98Gceo0cIi-16">
          <mxGeometry relative="1" as="geometry" />
        </mxCell>
        <mxCell id="uiQVbK0ZHy98Gceo0cIi-12" value="&lt;font style=&quot;font-size: 10px;&quot;&gt;Är RegNr&lt;/font&gt;&lt;div&gt;&lt;font style=&quot;font-size: 10px;&quot;&gt;giltigt?&lt;/font&gt;&lt;/div&gt;" style="rhombus;whiteSpace=wrap;html=1;" vertex="1" parent="WIyWlLk6GJQsqaUBKTNV-1">
          <mxGeometry x="360" y="490" width="80" height="80" as="geometry" />
        </mxCell>
        <mxCell id="uiQVbK0ZHy98Gceo0cIi-19" value="" style="edgeStyle=orthogonalEdgeStyle;rounded=0;orthogonalLoop=1;jettySize=auto;html=1;" edge="1" parent="WIyWlLk6GJQsqaUBKTNV-1" source="uiQVbK0ZHy98Gceo0cIi-16" target="uiQVbK0ZHy98Gceo0cIi-18">
          <mxGeometry relative="1" as="geometry">
            <Array as="points">
              <mxPoint x="390" y="670" />
              <mxPoint x="390" y="670" />
            </Array>
          </mxGeometry>
        </mxCell>
        <mxCell id="uiQVbK0ZHy98Gceo0cIi-16" value="Fyll i datum och tid" style="shape=parallelogram;perimeter=parallelogramPerimeter;whiteSpace=wrap;html=1;fixedSize=1;" vertex="1" parent="WIyWlLk6GJQsqaUBKTNV-1">
          <mxGeometry x="320" y="610" width="160" height="40" as="geometry" />
        </mxCell>
        <mxCell id="uiQVbK0ZHy98Gceo0cIi-20" value="" style="edgeStyle=orthogonalEdgeStyle;rounded=0;orthogonalLoop=1;jettySize=auto;html=1;" edge="1" parent="WIyWlLk6GJQsqaUBKTNV-1" source="uiQVbK0ZHy98Gceo0cIi-18" target="uiQVbK0ZHy98Gceo0cIi-16">
          <mxGeometry relative="1" as="geometry">
            <Array as="points">
              <mxPoint x="410" y="680" />
              <mxPoint x="410" y="680" />
            </Array>
          </mxGeometry>
        </mxCell>
        <mxCell id="uiQVbK0ZHy98Gceo0cIi-21" value="Nej" style="edgeLabel;html=1;align=center;verticalAlign=middle;resizable=0;points=[];" vertex="1" connectable="0" parent="uiQVbK0ZHy98Gceo0cIi-20">
          <mxGeometry x="0.1476" y="-4" relative="1" as="geometry">
            <mxPoint as="offset" />
          </mxGeometry>
        </mxCell>
        <mxCell id="uiQVbK0ZHy98Gceo0cIi-24" value="Ja" style="edgeStyle=orthogonalEdgeStyle;rounded=0;orthogonalLoop=1;jettySize=auto;html=1;exitX=0.5;exitY=1;exitDx=0;exitDy=0;entryX=0;entryY=0.5;entryDx=0;entryDy=0;" edge="1" parent="WIyWlLk6GJQsqaUBKTNV-1" source="uiQVbK0ZHy98Gceo0cIi-18" target="uiQVbK0ZHy98Gceo0cIi-22">
          <mxGeometry relative="1" as="geometry" />
        </mxCell>
        <mxCell id="uiQVbK0ZHy98Gceo0cIi-18" value="&lt;font style=&quot;font-size: 9px;&quot;&gt;Är Datum och Tid giltigt?&lt;/font&gt;" style="rhombus;whiteSpace=wrap;html=1;" vertex="1" parent="WIyWlLk6GJQsqaUBKTNV-1">
          <mxGeometry x="350" y="700" width="100" height="100" as="geometry" />
        </mxCell>
        <mxCell id="uiQVbK0ZHy98Gceo0cIi-25" value="Ja" style="edgeStyle=orthogonalEdgeStyle;rounded=0;orthogonalLoop=1;jettySize=auto;html=1;exitX=0.5;exitY=0;exitDx=0;exitDy=0;entryX=0.75;entryY=1;entryDx=0;entryDy=0;curved=1;" edge="1" parent="WIyWlLk6GJQsqaUBKTNV-1" source="uiQVbK0ZHy98Gceo0cIi-22" target="uiQVbK0ZHy98Gceo0cIi-16">
          <mxGeometry relative="1" as="geometry" />
        </mxCell>
        <mxCell id="uiQVbK0ZHy98Gceo0cIi-28" value="Nej" style="edgeStyle=orthogonalEdgeStyle;rounded=0;orthogonalLoop=1;jettySize=auto;html=1;" edge="1" parent="WIyWlLk6GJQsqaUBKTNV-1" source="uiQVbK0ZHy98Gceo0cIi-22" target="uiQVbK0ZHy98Gceo0cIi-26">
          <mxGeometry relative="1" as="geometry" />
        </mxCell>
        <mxCell id="uiQVbK0ZHy98Gceo0cIi-22" value="&lt;font style=&quot;font-size: 10px;&quot;&gt;Är det en dubbelbokning?&lt;/font&gt;" style="rhombus;whiteSpace=wrap;html=1;" vertex="1" parent="WIyWlLk6GJQsqaUBKTNV-1">
          <mxGeometry x="430" y="800" width="110" height="110" as="geometry" />
        </mxCell>
        <mxCell id="uiQVbK0ZHy98Gceo0cIi-30" value="" style="edgeStyle=orthogonalEdgeStyle;rounded=0;orthogonalLoop=1;jettySize=auto;html=1;" edge="1" parent="WIyWlLk6GJQsqaUBKTNV-1" source="uiQVbK0ZHy98Gceo0cIi-26" target="uiQVbK0ZHy98Gceo0cIi-29">
          <mxGeometry relative="1" as="geometry" />
        </mxCell>
        <mxCell id="uiQVbK0ZHy98Gceo0cIi-26" value="Lista tillgängliga&lt;div&gt;servicar&lt;/div&gt;" style="shape=parallelogram;perimeter=parallelogramPerimeter;whiteSpace=wrap;html=1;fixedSize=1;" vertex="1" parent="WIyWlLk6GJQsqaUBKTNV-1">
          <mxGeometry x="425" y="950" width="120" height="50" as="geometry" />
        </mxCell>
        <mxCell id="uiQVbK0ZHy98Gceo0cIi-27" style="edgeStyle=orthogonalEdgeStyle;rounded=0;orthogonalLoop=1;jettySize=auto;html=1;exitX=0.5;exitY=1;exitDx=0;exitDy=0;" edge="1" parent="WIyWlLk6GJQsqaUBKTNV-1" source="uiQVbK0ZHy98Gceo0cIi-26" target="uiQVbK0ZHy98Gceo0cIi-26">
          <mxGeometry relative="1" as="geometry" />
        </mxCell>
        <mxCell id="uiQVbK0ZHy98Gceo0cIi-32" value="" style="edgeStyle=orthogonalEdgeStyle;rounded=0;orthogonalLoop=1;jettySize=auto;html=1;" edge="1" parent="WIyWlLk6GJQsqaUBKTNV-1" source="uiQVbK0ZHy98Gceo0cIi-29" target="uiQVbK0ZHy98Gceo0cIi-31">
          <mxGeometry relative="1" as="geometry">
            <Array as="points">
              <mxPoint x="480" y="1090" />
              <mxPoint x="480" y="1090" />
            </Array>
          </mxGeometry>
        </mxCell>
        <mxCell id="uiQVbK0ZHy98Gceo0cIi-29" value="Välj service" style="shape=parallelogram;perimeter=parallelogramPerimeter;whiteSpace=wrap;html=1;fixedSize=1;" vertex="1" parent="WIyWlLk6GJQsqaUBKTNV-1">
          <mxGeometry x="425" y="1040" width="120" height="30" as="geometry" />
        </mxCell>
        <mxCell id="uiQVbK0ZHy98Gceo0cIi-33" value="Nej" style="edgeStyle=orthogonalEdgeStyle;rounded=0;orthogonalLoop=1;jettySize=auto;html=1;" edge="1" parent="WIyWlLk6GJQsqaUBKTNV-1" source="uiQVbK0ZHy98Gceo0cIi-31" target="uiQVbK0ZHy98Gceo0cIi-29">
          <mxGeometry relative="1" as="geometry">
            <Array as="points">
              <mxPoint x="490" y="1090" />
              <mxPoint x="490" y="1090" />
            </Array>
          </mxGeometry>
        </mxCell>
        <mxCell id="uiQVbK0ZHy98Gceo0cIi-35" value="" style="edgeStyle=orthogonalEdgeStyle;rounded=0;orthogonalLoop=1;jettySize=auto;html=1;" edge="1" parent="WIyWlLk6GJQsqaUBKTNV-1" source="uiQVbK0ZHy98Gceo0cIi-31" target="uiQVbK0ZHy98Gceo0cIi-34">
          <mxGeometry relative="1" as="geometry" />
        </mxCell>
        <mxCell id="uiQVbK0ZHy98Gceo0cIi-36" value="Ja" style="edgeLabel;html=1;align=center;verticalAlign=middle;resizable=0;points=[];" vertex="1" connectable="0" parent="uiQVbK0ZHy98Gceo0cIi-35">
          <mxGeometry x="0.2993" relative="1" as="geometry">
            <mxPoint as="offset" />
          </mxGeometry>
        </mxCell>
        <mxCell id="uiQVbK0ZHy98Gceo0cIi-31" value="&lt;font style=&quot;font-size: 10px;&quot;&gt;Är vald service giltig?&lt;/font&gt;" style="rhombus;whiteSpace=wrap;html=1;" vertex="1" parent="WIyWlLk6GJQsqaUBKTNV-1">
          <mxGeometry x="437.5" y="1110" width="95" height="100" as="geometry" />
        </mxCell>
        <mxCell id="uiQVbK0ZHy98Gceo0cIi-40" style="edgeStyle=orthogonalEdgeStyle;rounded=1;orthogonalLoop=1;jettySize=auto;html=1;exitX=0;exitY=1;exitDx=0;exitDy=0;entryX=0.5;entryY=0;entryDx=0;entryDy=0;curved=0;" edge="1" parent="WIyWlLk6GJQsqaUBKTNV-1" source="uiQVbK0ZHy98Gceo0cIi-34" target="uiQVbK0ZHy98Gceo0cIi-37">
          <mxGeometry relative="1" as="geometry">
            <Array as="points">
              <mxPoint x="410" y="1315" />
            </Array>
          </mxGeometry>
        </mxCell>
        <mxCell id="uiQVbK0ZHy98Gceo0cIi-42" value="Ja" style="edgeLabel;html=1;align=center;verticalAlign=middle;resizable=0;points=[];" vertex="1" connectable="0" parent="uiQVbK0ZHy98Gceo0cIi-40">
          <mxGeometry x="0.3334" relative="1" as="geometry">
            <mxPoint as="offset" />
          </mxGeometry>
        </mxCell>
        <mxCell id="uiQVbK0ZHy98Gceo0cIi-34" value="&lt;font style=&quot;font-size: 10px;&quot;&gt;Vill du lägga till en kommentar?&lt;/font&gt;" style="rhombus;whiteSpace=wrap;html=1;" vertex="1" parent="WIyWlLk6GJQsqaUBKTNV-1">
          <mxGeometry x="427.5" y="1240" width="115" height="100" as="geometry" />
        </mxCell>
        <mxCell id="uiQVbK0ZHy98Gceo0cIi-37" value="Lägg till en kommentar" style="shape=parallelogram;perimeter=parallelogramPerimeter;whiteSpace=wrap;html=1;fixedSize=1;" vertex="1" parent="WIyWlLk6GJQsqaUBKTNV-1">
          <mxGeometry x="350" y="1370" width="120" height="40" as="geometry" />
        </mxCell>
        <mxCell id="uiQVbK0ZHy98Gceo0cIi-38" style="edgeStyle=orthogonalEdgeStyle;rounded=0;orthogonalLoop=1;jettySize=auto;html=1;exitX=0.5;exitY=1;exitDx=0;exitDy=0;" edge="1" parent="WIyWlLk6GJQsqaUBKTNV-1" source="uiQVbK0ZHy98Gceo0cIi-37" target="uiQVbK0ZHy98Gceo0cIi-37">
          <mxGeometry relative="1" as="geometry" />
        </mxCell>
        <mxCell id="uiQVbK0ZHy98Gceo0cIi-39" value="Lägger till&amp;nbsp;&lt;div&gt;&quot;No Comment&quot;&lt;/div&gt;" style="shape=parallelogram;perimeter=parallelogramPerimeter;whiteSpace=wrap;html=1;fixedSize=1;" vertex="1" parent="WIyWlLk6GJQsqaUBKTNV-1">
          <mxGeometry x="490" y="1370" width="120" height="40" as="geometry" />
        </mxCell>
        <mxCell id="uiQVbK0ZHy98Gceo0cIi-50" value="" style="edgeStyle=orthogonalEdgeStyle;rounded=0;orthogonalLoop=1;jettySize=auto;html=1;" edge="1" parent="WIyWlLk6GJQsqaUBKTNV-1" source="uiQVbK0ZHy98Gceo0cIi-44" target="uiQVbK0ZHy98Gceo0cIi-49">
          <mxGeometry relative="1" as="geometry" />
        </mxCell>
        <mxCell id="uiQVbK0ZHy98Gceo0cIi-44" value="Presenterar&amp;nbsp;&lt;br&gt;bokningsdetaljer" style="shape=parallelogram;perimeter=parallelogramPerimeter;whiteSpace=wrap;html=1;fixedSize=1;" vertex="1" parent="WIyWlLk6GJQsqaUBKTNV-1">
          <mxGeometry x="414" y="1460" width="120" height="50" as="geometry" />
        </mxCell>
        <mxCell id="uiQVbK0ZHy98Gceo0cIi-45" style="edgeStyle=orthogonalEdgeStyle;rounded=1;orthogonalLoop=1;jettySize=auto;html=1;exitX=0.5;exitY=1;exitDx=0;exitDy=0;entryX=0.388;entryY=0.036;entryDx=0;entryDy=0;entryPerimeter=0;curved=0;" edge="1" parent="WIyWlLk6GJQsqaUBKTNV-1" source="uiQVbK0ZHy98Gceo0cIi-37" target="uiQVbK0ZHy98Gceo0cIi-44">
          <mxGeometry relative="1" as="geometry" />
        </mxCell>
        <mxCell id="uiQVbK0ZHy98Gceo0cIi-46" style="edgeStyle=orthogonalEdgeStyle;rounded=1;orthogonalLoop=1;jettySize=auto;html=1;exitX=0.5;exitY=1;exitDx=0;exitDy=0;entryX=0.698;entryY=-0.019;entryDx=0;entryDy=0;entryPerimeter=0;curved=0;" edge="1" parent="WIyWlLk6GJQsqaUBKTNV-1" source="uiQVbK0ZHy98Gceo0cIi-39" target="uiQVbK0ZHy98Gceo0cIi-44">
          <mxGeometry relative="1" as="geometry" />
        </mxCell>
        <mxCell id="uiQVbK0ZHy98Gceo0cIi-47" style="edgeStyle=orthogonalEdgeStyle;rounded=1;orthogonalLoop=1;jettySize=auto;html=1;exitX=1;exitY=1;exitDx=0;exitDy=0;entryX=0.583;entryY=0;entryDx=0;entryDy=0;entryPerimeter=0;curved=0;" edge="1" parent="WIyWlLk6GJQsqaUBKTNV-1" source="uiQVbK0ZHy98Gceo0cIi-34" target="uiQVbK0ZHy98Gceo0cIi-39">
          <mxGeometry relative="1" as="geometry">
            <Array as="points">
              <mxPoint x="560" y="1315" />
            </Array>
          </mxGeometry>
        </mxCell>
        <mxCell id="uiQVbK0ZHy98Gceo0cIi-48" value="Nej" style="edgeLabel;html=1;align=center;verticalAlign=middle;resizable=0;points=[];" vertex="1" connectable="0" parent="uiQVbK0ZHy98Gceo0cIi-47">
          <mxGeometry x="0.4428" y="1" relative="1" as="geometry">
            <mxPoint as="offset" />
          </mxGeometry>
        </mxCell>
        <mxCell id="uiQVbK0ZHy98Gceo0cIi-52" style="edgeStyle=orthogonalEdgeStyle;rounded=1;orthogonalLoop=1;jettySize=auto;html=1;exitX=0;exitY=1;exitDx=0;exitDy=0;entryX=0.5;entryY=0;entryDx=0;entryDy=0;curved=0;" edge="1" parent="WIyWlLk6GJQsqaUBKTNV-1">
          <mxGeometry relative="1" as="geometry">
            <mxPoint x="449.96" y="1607.5" as="sourcePoint" />
            <mxPoint x="388.46" y="1640" as="targetPoint" />
          </mxGeometry>
        </mxCell>
        <mxCell id="uiQVbK0ZHy98Gceo0cIi-53" value="Nej" style="edgeLabel;html=1;align=center;verticalAlign=middle;resizable=0;points=[];" vertex="1" connectable="0" parent="uiQVbK0ZHy98Gceo0cIi-52">
          <mxGeometry x="-0.2771" y="2" relative="1" as="geometry">
            <mxPoint as="offset" />
          </mxGeometry>
        </mxCell>
        <mxCell id="uiQVbK0ZHy98Gceo0cIi-59" style="edgeStyle=orthogonalEdgeStyle;rounded=1;orthogonalLoop=1;jettySize=auto;html=1;exitX=1;exitY=1;exitDx=0;exitDy=0;entryX=0.5;entryY=0;entryDx=0;entryDy=0;curved=0;" edge="1" parent="WIyWlLk6GJQsqaUBKTNV-1" source="uiQVbK0ZHy98Gceo0cIi-49" target="uiQVbK0ZHy98Gceo0cIi-54">
          <mxGeometry relative="1" as="geometry">
            <Array as="points">
              <mxPoint x="495" y="1600" />
              <mxPoint x="559" y="1600" />
            </Array>
          </mxGeometry>
        </mxCell>
        <mxCell id="uiQVbK0ZHy98Gceo0cIi-60" value="Ja" style="edgeLabel;html=1;align=center;verticalAlign=middle;resizable=0;points=[];" vertex="1" connectable="0" parent="uiQVbK0ZHy98Gceo0cIi-59">
          <mxGeometry x="0.5105" relative="1" as="geometry">
            <mxPoint as="offset" />
          </mxGeometry>
        </mxCell>
        <mxCell id="uiQVbK0ZHy98Gceo0cIi-49" value="&lt;font style=&quot;font-size: 10px;&quot;&gt;Användaren&lt;/font&gt;&lt;div&gt;&lt;font style=&quot;font-size: 10px;&quot;&gt;bekräftar?&lt;/font&gt;&lt;/div&gt;" style="rhombus;whiteSpace=wrap;html=1;" vertex="1" parent="WIyWlLk6GJQsqaUBKTNV-1">
          <mxGeometry x="431.5" y="1540" width="85" height="90" as="geometry" />
        </mxCell>
        <mxCell id="uiQVbK0ZHy98Gceo0cIi-51" value="Avbryt bokningen" style="ellipse;whiteSpace=wrap;html=1;" vertex="1" parent="WIyWlLk6GJQsqaUBKTNV-1">
          <mxGeometry x="345" y="1640" width="92.5" height="60" as="geometry" />
        </mxCell>
        <mxCell id="uiQVbK0ZHy98Gceo0cIi-61" value="" style="edgeStyle=orthogonalEdgeStyle;rounded=0;orthogonalLoop=1;jettySize=auto;html=1;" edge="1" parent="WIyWlLk6GJQsqaUBKTNV-1" source="uiQVbK0ZHy98Gceo0cIi-54" target="uiQVbK0ZHy98Gceo0cIi-56">
          <mxGeometry relative="1" as="geometry" />
        </mxCell>
        <mxCell id="uiQVbK0ZHy98Gceo0cIi-54" value="skapar ett nytt bokningsobjekt" style="rounded=0;whiteSpace=wrap;html=1;" vertex="1" parent="WIyWlLk6GJQsqaUBKTNV-1">
          <mxGeometry x="497.5" y="1640" width="122.5" height="40" as="geometry" />
        </mxCell>
        <mxCell id="uiQVbK0ZHy98Gceo0cIi-62" value="" style="edgeStyle=orthogonalEdgeStyle;rounded=0;orthogonalLoop=1;jettySize=auto;html=1;" edge="1" parent="WIyWlLk6GJQsqaUBKTNV-1" source="uiQVbK0ZHy98Gceo0cIi-55" target="uiQVbK0ZHy98Gceo0cIi-57">
          <mxGeometry relative="1" as="geometry" />
        </mxCell>
        <mxCell id="uiQVbK0ZHy98Gceo0cIi-55" value="Lägger till objektet i bokningslistan" style="rounded=0;whiteSpace=wrap;html=1;" vertex="1" parent="WIyWlLk6GJQsqaUBKTNV-1">
          <mxGeometry x="497.5" y="1700" width="120" height="40" as="geometry" />
        </mxCell>
        <mxCell id="uiQVbK0ZHy98Gceo0cIi-56" value="plussa på bokningsräknaren" style="rounded=0;whiteSpace=wrap;html=1;" vertex="1" parent="WIyWlLk6GJQsqaUBKTNV-1">
          <mxGeometry x="497.5" y="1770" width="120" height="40" as="geometry" />
        </mxCell>
        <mxCell id="uiQVbK0ZHy98Gceo0cIi-57" value="Bokning klar" style="ellipse;whiteSpace=wrap;html=1;" vertex="1" parent="WIyWlLk6GJQsqaUBKTNV-1">
          <mxGeometry x="512.5" y="1840" width="97.5" height="50" as="geometry" />
        </mxCell>
      </root>
    </mxGraphModel>
  </diagram>
</mxfile>
